<?xml version="1.0" encoding="UTF-8"?>
<svg xmlns="http://www.w3.org/2000/svg" width="800" height="600" viewBox="0 0 800 600">
  <!-- Hintergrund (Rasen) -->
  <rect width="800" height="600" fill="#37B24D"/>
  
  <!-- Rasenstreifen-Muster -->
  <pattern id="grass-pattern" patternUnits="userSpaceOnUse" width="40" height="600" patternTransform="rotate(0)">
    <rect width="20" height="600" fill="#37B24D"/>
    <rect x="20" width="20" height="600" fill="#40C057"/>
  </pattern>
  <rect width="800" height="600" fill="url(#grass-pattern)"/>
  
  <!-- Äußere Spielfeldlinien -->
  <rect x="40" y="40" width="720" height="520" fill="none" stroke="white" stroke-width="4"/>
  
  <!-- Mittellinie -->
  <line x1="400" y1="40" x2="400" y2="560" stroke="white" stroke-width="4"/>
  
  <!-- Mittelkreis -->
  <circle cx="400" cy="300" r="70" fill="none" stroke="white" stroke-width="4"/>
  <circle cx="400" cy="300" r="4" fill="white"/>
  
  <!-- Strafräume -->
  <rect x="40" y="160" width="120" height="280" fill="none" stroke="white" stroke-width="4"/>
  <rect x="640" y="160" width="120" height="280" fill="none" stroke="white" stroke-width="4"/>
  
  <!-- Toräume -->
  <rect x="40" y="220" width="50" height="160" fill="none" stroke="white" stroke-width="4"/>
  <rect x="710" y="220" width="50" height="160" fill="none" stroke="white" stroke-width="4"/>
  
  <!-- Eckfahnen -->
  <circle cx="40" cy="40" r="4" fill="white"/>
  <circle cx="760" cy="40" r="4" fill="white"/>
  <circle cx="40" cy="560" r="4" fill="white"/>
  <circle cx="760" cy="560" r="4" fill="white"/>
  
  <!-- Elfmeterpunkte -->
  <circle cx="120" cy="300" r="4" fill="white"/>
  <circle cx="680" cy="300" r="4" fill="white"/>
</svg>